<?xml version="1.0" encoding="utf-8"?>
<!-- Generator: Adobe Illustrator 24.3.0, SVG Export Plug-In . SVG Version: 6.00 Build 0)  -->
<svg version="1.1" id="Layer_1" xmlns="http://www.w3.org/2000/svg" xmlns:xlink="http://www.w3.org/1999/xlink" x="0px" y="0px"
	 viewBox="0 0 26.7 29" style="enable-background:new 0 0 26.7 29;" xml:space="preserve">
<style type="text/css">
	.st0{fill:url(#SVGID_1_);}
	.st1{fill:url(#SVGID_2_);}
	.st2{fill:url(#SVGID_3_);}
	.st3{fill:url(#SVGID_4_);}
	.st4{fill:url(#SVGID_5_);}
</style>
<g>
	<g>
		<g>
			<g>
				<radialGradient id="SVGID_1_" cx="13.3506" cy="14.482" r="13.3505" gradientUnits="userSpaceOnUse">
					<stop  offset="5.376340e-03" style="stop-color:#FFFFBB"/>
					<stop  offset="0.3004" style="stop-color:#F2DC85"/>
					<stop  offset="1" style="stop-color:#E1B141"/>
				</radialGradient>
				<path class="st0" d="M0,14.7c0.1,3.1,1.2,6.1,3.3,8.5c2.4,2.7,5.6,4.3,9.2,4.5s7-0.9,9.7-3.3c2.7-2.4,4.3-5.6,4.5-9.2
					c0.2-2.9-0.5-5.7-2.1-8.1c-0.3-0.5-1-0.7-1.6-0.3c-0.5,0.3-0.7,1-0.3,1.6c1.3,2,1.9,4.3,1.7,6.7c-0.4,6.1-5.7,10.7-11.8,10.3
					C6.5,25.1,1.9,19.9,2.3,13.8S8,3,14.1,3.4c1.9,0.1,3.7,0.7,5.2,1.7c0.5,0.3,1.2,0.2,1.6-0.3c0.3-0.5,0.2-1.2-0.3-1.6
					c-1.9-1.2-4.1-1.9-6.3-2.1c-3.6-0.2-7,0.9-9.7,3.3c-2.4,2.1-3.9,4.9-4.4,8"/>
			</g>
		</g>
	</g>
	<g>
		<g>
			<radialGradient id="SVGID_2_" cx="13.3731" cy="14.4833" r="7.3619" gradientUnits="userSpaceOnUse">
				<stop  offset="5.376340e-03" style="stop-color:#FFFFBB"/>
				<stop  offset="0.3004" style="stop-color:#F2DC85"/>
				<stop  offset="1" style="stop-color:#E1B141"/>
			</radialGradient>
			<path class="st1" d="M13.4,24.9c-0.4,0-0.8-0.3-0.8-0.8V4.8c0-0.4,0.3-0.8,0.8-0.8s0.8,0.3,0.8,0.8v19.3
				C14.1,24.5,13.8,24.9,13.4,24.9z"/>
		</g>
		<g>
			<radialGradient id="SVGID_3_" cx="13.3729" cy="14.4838" r="7.3621" gradientUnits="userSpaceOnUse">
				<stop  offset="5.376340e-03" style="stop-color:#FFFFBB"/>
				<stop  offset="0.3004" style="stop-color:#F2DC85"/>
				<stop  offset="1" style="stop-color:#E1B141"/>
			</radialGradient>
			<path class="st2" d="M23,15.2H3.7c-0.4,0-0.8-0.3-0.8-0.8s0.3-0.8,0.8-0.8H23c0.4,0,0.8,0.3,0.8,0.8S23.4,15.2,23,15.2z"/>
		</g>
		<g>
			<radialGradient id="SVGID_4_" cx="13.3729" cy="14.4838" r="7.5626" gradientUnits="userSpaceOnUse">
				<stop  offset="5.376340e-03" style="stop-color:#FFFFBB"/>
				<stop  offset="0.3004" style="stop-color:#F2DC85"/>
				<stop  offset="1" style="stop-color:#E1B141"/>
			</radialGradient>
			<path class="st3" d="M6.6,22C6.4,22,6.2,22,6,21.8c-0.3-0.3-0.3-0.8,0-1.1L19.7,7.1c0.3-0.3,0.8-0.3,1.1,0s0.3,0.8,0,1.1
				L7.1,21.8C6.9,22,6.8,22,6.6,22z"/>
		</g>
		<g>
			<radialGradient id="SVGID_5_" cx="13.3768" cy="14.497" r="7.5699" gradientUnits="userSpaceOnUse">
				<stop  offset="5.376340e-03" style="stop-color:#FFFFBB"/>
				<stop  offset="0.3004" style="stop-color:#F2DC85"/>
				<stop  offset="1" style="stop-color:#E1B141"/>
			</radialGradient>
			<path class="st4" d="M20.2,22.1c-0.2,0-0.4-0.1-0.5-0.2L6,8.2C5.7,7.9,5.7,7.4,6,7.1c0.3-0.3,0.8-0.3,1.1,0l13.6,13.6
				c0.3,0.3,0.3,0.8,0,1.1C20.6,22,20.4,22.1,20.2,22.1z"/>
		</g>
	</g>
</g>
</svg>
