<?xml version="1.0" encoding="utf-8"?>
<!-- Generator: Adobe Illustrator 24.3.0, SVG Export Plug-In . SVG Version: 6.00 Build 0)  -->
<svg version="1.1" id="Capa_1" xmlns="http://www.w3.org/2000/svg" xmlns:xlink="http://www.w3.org/1999/xlink" x="0px" y="0px"
	 viewBox="0 0 36 36" style="enable-background:new 0 0 36 36;" xml:space="preserve">
<style type="text/css">
	.st0{fill:#FFFFFF;}
</style>
<g>
	<g>
		<path class="st0" d="M35.8,17.4l-4.7-4.7c-0.2-0.2-0.6-0.3-0.9-0.2c-0.3,0.1-0.5,0.4-0.5,0.7v2.3h-9.4V6.3h2.3
			c0.3,0,0.6-0.2,0.7-0.5c0.1-0.3,0.1-0.6-0.2-0.9l-4.7-4.7c-0.3-0.3-0.8-0.3-1.1,0l-4.7,4.7c-0.2,0.2-0.3,0.6-0.2,0.9
			c0.1,0.3,0.4,0.5,0.7,0.5h2.3v9.4H6.3v-2.3c0-0.3-0.2-0.6-0.5-0.7c-0.3-0.1-0.6-0.1-0.9,0.2l-4.7,4.7c-0.3,0.3-0.3,0.8,0,1.1
			l4.7,4.7c0.2,0.2,0.6,0.3,0.9,0.2c0.3-0.1,0.5-0.4,0.5-0.7v-2.3h9.4v9.4h-2.3c-0.3,0-0.6,0.2-0.7,0.5s-0.1,0.6,0.2,0.9l4.7,4.7
			c0.2,0.2,0.4,0.2,0.6,0.2c0.2,0,0.4-0.1,0.6-0.2l4.7-4.7c0.2-0.2,0.3-0.6,0.2-0.9c-0.1-0.3-0.4-0.5-0.7-0.5h-2.3v-9.4h9.4v2.3
			c0,0.3,0.2,0.6,0.5,0.7c0.3,0.1,0.6,0.1,0.9-0.2l4.7-4.7C36.1,18.2,36.1,17.8,35.8,17.4z"/>
	</g>
</g>
</svg>
