<?xml version="1.0" encoding="utf-8"?>
<!-- Generator: Adobe Illustrator 24.3.0, SVG Export Plug-In . SVG Version: 6.00 Build 0)  -->
<svg version="1.1" id="Layer_1" xmlns="http://www.w3.org/2000/svg" xmlns:xlink="http://www.w3.org/1999/xlink" x="0px" y="0px"
	 viewBox="0 0 28.9 29" style="enable-background:new 0 0 28.9 29;" xml:space="preserve">
<style type="text/css">
	.st0{fill:url(#SVGID_1_);}
</style>
<g>
	<radialGradient id="SVGID_1_" cx="15.2941" cy="12.7758" r="22.126" gradientUnits="userSpaceOnUse">
		<stop  offset="5.376340e-03" style="stop-color:#FFFFBB"/>
		<stop  offset="0.3004" style="stop-color:#F2DC85"/>
		<stop  offset="1" style="stop-color:#E1B141"/>
	</radialGradient>
	<path class="st0" d="M14.4,28.6c-0.5,0-1,0-1.4-0.1c-6.6-0.7-12-6-12.6-12.6C0,11.9,1.2,8,3.9,5c2.7-3,6.5-4.7,10.5-4.7
		c0.5,0,1,0,1.4,0.1c6.6,0.7,12,6,12.6,12.6c0.4,4-0.9,7.9-3.6,10.9C22.2,26.9,18.4,28.6,14.4,28.6C14.4,28.6,14.4,28.6,14.4,28.6z
		 M10.6,24.8c1.2,0.5,2.5,0.7,3.9,0.7c1.1,0,2.2-0.2,3.2-0.5c-0.3-0.2-0.7-0.3-1-0.6c-0.4-0.2-0.7-0.5-1-0.7c-2.3-1.9-3.5-4.5-3.4-7
		c-1.4,1-2.3,2.9-2.3,4.8C9.9,22.9,10.1,23.9,10.6,24.8z M15.4,17.5c0.1,1.4,0.9,2.7,2.2,3.9c0.2,0.2,0.4,0.3,0.7,0.5
		c1.2,0.7,2.1,1,3.2,1.1c1.9-1.6,3.2-3.7,3.7-6c-0.3,0.2-0.5,0.3-0.8,0.5c-1.4,0.8-3,1.2-4.6,1.2C18.1,18.7,16.6,18.3,15.4,17.5z
		 M3.5,16.3c0.4,2.4,1.6,4.6,3.4,6.2c0-0.3,0-0.6,0-1c0-3.3,1.8-6.4,4.5-7.8c-0.7-0.3-1.4-0.4-2.2-0.4c-1.1,0-2.2,0.3-3.1,0.8
		C4.9,14.8,4.1,15.5,3.5,16.3z M17.5,15.2c0.7,0.3,1.4,0.4,2.2,0.4c1.1,0,2.2-0.3,3.1-0.8c1.1-0.7,1.9-1.3,2.5-2.2
		C24.9,10.2,23.7,8,22,6.4c0,0.3,0,0.6,0,1C22,10.7,20.2,13.8,17.5,15.2z M11.2,3.9c0.3,0.2,0.7,0.3,1,0.6c0.4,0.2,0.7,0.4,1,0.7
		c2.3,1.9,3.5,4.5,3.4,7c1.4-1,2.3-2.9,2.3-4.8c0-1.3-0.2-2.3-0.6-3.2c-1.2-0.5-2.5-0.7-3.9-0.7C13.3,3.4,12.2,3.6,11.2,3.9z M7.4,6
		c-1.9,1.6-3.2,3.7-3.7,6c0.3-0.2,0.5-0.3,0.8-0.5c1.4-0.8,3-1.2,4.6-1.2c1.6,0,3.1,0.4,4.4,1.2c-0.1-1.4-0.9-2.7-2.2-3.9
		c-0.2-0.2-0.4-0.3-0.7-0.5C9.4,6.4,8.5,6.1,7.4,6z"/>
</g>
</svg>
