<?xml version="1.0" encoding="utf-8"?>
<!-- Generator: Adobe Illustrator 24.3.0, SVG Export Plug-In . SVG Version: 6.00 Build 0)  -->
<svg version="1.0" id="Layer_1" xmlns="http://www.w3.org/2000/svg" xmlns:xlink="http://www.w3.org/1999/xlink" x="0px" y="0px"
	 viewBox="0 0 32.1 28.1" style="enable-background:new 0 0 32.1 28.1;" xml:space="preserve">
<style type="text/css">
	.st0{fill:url(#SVGID_1_);}
	.st1{fill:url(#SVGID_2_);}
	.st2{fill:url(#SVGID_3_);}
	.st3{fill:url(#SVGID_4_);}
	.st4{fill:url(#SVGID_5_);}
</style>
<g>
	<g>
		<g>
			<linearGradient id="SVGID_1_" gradientUnits="userSpaceOnUse" x1="0" y1="8.4553" x2="13.1734" y2="8.4553">
				<stop  offset="5.376340e-03" style="stop-color:#FFFFBB"/>
				<stop  offset="0.3004" style="stop-color:#F2DC85"/>
				<stop  offset="1" style="stop-color:#E1B141"/>
			</linearGradient>
			<path class="st0" d="M10.5,10.3c0.7-1.1,1.6-2.1,2.6-2.9c-0.6,0-1.1,0-1.7,0c-5,0-9.3-0.8-10.8-1.8C0.4,5.4,0,5.6,0,5.9v2.8
				c0,1.4,4.3,2.5,9.9,2.6c0,0,0,0,0,0C10.1,11,10.3,10.6,10.5,10.3z"/>
			<linearGradient id="SVGID_2_" gradientUnits="userSpaceOnUse" x1="0" y1="14.579" x2="9.0523" y2="14.579">
				<stop  offset="5.376340e-03" style="stop-color:#FFFFBB"/>
				<stop  offset="0.3004" style="stop-color:#F2DC85"/>
				<stop  offset="1" style="stop-color:#E1B141"/>
			</linearGradient>
			<path class="st1" d="M8.6,15.9c0.1-0.8,0.2-1.7,0.5-2.5c-3.9-0.2-7.1-0.9-8.4-1.7c-0.3-0.2-0.6,0-0.6,0.3v2.8
				c0,1.2,3.6,2.3,8.5,2.6c0-0.1,0-0.3,0-0.4C8.5,16.7,8.5,16.3,8.6,15.9z"/>
			<linearGradient id="SVGID_3_" gradientUnits="userSpaceOnUse" x1="0" y1="20.771" x2="10.3316" y2="20.771">
				<stop  offset="5.376340e-03" style="stop-color:#FFFFBB"/>
				<stop  offset="0.3004" style="stop-color:#F2DC85"/>
				<stop  offset="1" style="stop-color:#E1B141"/>
			</linearGradient>
			<path class="st2" d="M9.4,21.6c-0.1-0.2-0.1-0.4-0.2-0.6c0-0.1-0.1-0.2-0.1-0.3c-0.1-0.3-0.2-0.6-0.2-0.9c0-0.1,0-0.2-0.1-0.3
				c-3.8-0.2-6.9-0.9-8.2-1.7c-0.3-0.2-0.6,0-0.6,0.3v2.8c0,1.4,4.5,2.5,10.3,2.7c0-0.1,0-0.1,0-0.2c-0.1-0.2-0.2-0.3-0.3-0.5
				C9.8,22.6,9.6,22.1,9.4,21.6z"/>
		</g>
		<linearGradient id="SVGID_4_" gradientUnits="userSpaceOnUse" x1="0" y1="2.6707" x2="22.8813" y2="2.6707">
			<stop  offset="5.376340e-03" style="stop-color:#FFFFBB"/>
			<stop  offset="0.3004" style="stop-color:#F2DC85"/>
			<stop  offset="1" style="stop-color:#E1B141"/>
		</linearGradient>
		<ellipse class="st3" cx="11.4" cy="2.7" rx="11.4" ry="2.7"/>
	</g>
</g>
<linearGradient id="SVGID_5_" gradientUnits="userSpaceOnUse" x1="9.9267" y1="17.0307" x2="32.1569" y2="17.0307">
	<stop  offset="5.376340e-03" style="stop-color:#FFFFBB"/>
	<stop  offset="0.3004" style="stop-color:#F2DC85"/>
	<stop  offset="1" style="stop-color:#E1B141"/>
</linearGradient>
<circle class="st4" cx="21" cy="17" r="11.1"/>
</svg>
