<svg xmlns="http://www.w3.org/2000/svg" xmlns:xlink="http://www.w3.org/1999/xlink" viewBox="0 0 207.72 39.54"><defs><style>.cls-1{fill:url(#linear-gradient);}.cls-2{fill:url(#linear-gradient-2);}.cls-3{fill:url(#linear-gradient-3);}.cls-4{fill:url(#linear-gradient-4);}.cls-5{fill:url(#linear-gradient-5);}.cls-6{fill:url(#linear-gradient-6);}.cls-7{fill:url(#linear-gradient-7);}.cls-8{fill:url(#linear-gradient-8);}.cls-9{fill:url(#linear-gradient-9);}.cls-10{fill:url(#linear-gradient-10);}.cls-11{fill:url(#linear-gradient-11);}.cls-12{fill:#fff;}.cls-13{fill:url(#radial-gradient);}.cls-14{fill:url(#radial-gradient-2);}.cls-15{fill:url(#radial-gradient-4);}.cls-16{fill:url(#linear-gradient-12);}</style><linearGradient id="linear-gradient" x1="155.74" y1="-2.47" x2="187.85" y2="-2.47" gradientTransform="translate(19.52 -3.39) rotate(9.62)" gradientUnits="userSpaceOnUse"><stop offset="0" stop-color="#7028e4"/><stop offset="0.25" stop-color="#802ad0"/><stop offset="0.76" stop-color="#a9309b"/><stop offset="0.99" stop-color="#bd3381"/></linearGradient><linearGradient id="linear-gradient-2" x1="119.51" y1="4.26" x2="153.68" y2="4.26" xlink:href="#linear-gradient"/><linearGradient id="linear-gradient-3" x1="100.1" y1="6.71" x2="130.8" y2="6.71" xlink:href="#linear-gradient"/><linearGradient id="linear-gradient-4" x1="146.53" y1="0.36" x2="164.34" y2="0.36" xlink:href="#linear-gradient"/><linearGradient id="linear-gradient-5" x1="42.74" y1="14.51" x2="75.5" y2="14.51" xlink:href="#linear-gradient"/><linearGradient id="linear-gradient-6" x1="8.54" y1="21.55" x2="39.17" y2="21.55" xlink:href="#linear-gradient"/><linearGradient id="linear-gradient-7" x1="8.49" y1="21.55" x2="39.12" y2="21.55" xlink:href="#linear-gradient"/><linearGradient id="linear-gradient-8" x1="-344.56" y1="-212.96" x2="-312.88" y2="-212.96" gradientTransform="translate(345.11 233.41) rotate(-0.14)" xlink:href="#linear-gradient"/><linearGradient id="linear-gradient-9" x1="-344.61" y1="-212.96" x2="-312.93" y2="-212.96" gradientTransform="translate(345.11 233.41) rotate(-0.14)" xlink:href="#linear-gradient"/><linearGradient id="linear-gradient-10" x1="-298.8" y1="-212.96" x2="-276.64" y2="-212.96" gradientTransform="translate(345.11 233.41) rotate(-0.14)" xlink:href="#linear-gradient"/><linearGradient id="linear-gradient-11" x1="-298.37" y1="-212.96" x2="-276.21" y2="-212.96" gradientTransform="translate(345.11 233.41) rotate(-0.14)" xlink:href="#linear-gradient"/><radialGradient id="radial-gradient" cx="-349.12" cy="61.69" r="199.89" gradientTransform="matrix(0.78, 0.13, -0.13, 0.78, 288.76, -11.65)" gradientUnits="userSpaceOnUse"><stop offset="0" stop-color="#fff"/><stop offset="0.36" stop-color="#fdfcfc"/><stop offset="0.6" stop-color="#f7f4f4"/><stop offset="0.79" stop-color="#ede5e5"/><stop offset="0.94" stop-color="#e2d5d5"/></radialGradient><radialGradient id="radial-gradient-2" cx="-691.38" cy="-224.37" r="205.05" gradientTransform="matrix(0.79, 0, 0, 0.79, 544.8, 174.55)" xlink:href="#radial-gradient"/><radialGradient id="radial-gradient-4" cx="89.05" cy="10.67" r="25.42" gradientTransform="translate(19.52 -3.39) rotate(9.62)" xlink:href="#radial-gradient"/><linearGradient id="linear-gradient-12" x1="68.9" y1="9.24" x2="105.79" y2="9.24" xlink:href="#linear-gradient"/></defs><g id="Layer_2" data-name="Layer 2"><g id="Layer_1-2" data-name="Layer 1"><polygon class="cls-1" points="179.48 10.43 190.34 10.41 192.47 14.82 193.99 10.4 207.72 10.36 199.14 35.34 188.65 35.36 186.25 30.68 184.63 35.37 170.9 35.4 179.48 10.43"/><path class="cls-2" d="M147.38,16.23a11.53,11.53,0,0,1,10.1-5.73h6.89a7.46,7.46,0,0,1,5.88,2.4,6.42,6.42,0,0,1,1.18,6.48l-5.5,16.06-13.74,0,1.9-5.51-.32-.39-4,5.9-15.67,0Z"/><path class="cls-3" d="M121.33,35.54a5.84,5.84,0,0,1-4.57-1.92,5.23,5.23,0,0,1-1-5.32l3.83-11.21a9.43,9.43,0,0,1,3.58-4.73,9.73,9.73,0,0,1,5.63-1.79l21-.05-2.3,6.71h.18l-4,11.76c-1.43,4.14-4.57,6.51-8.61,6.52l-13.74,0Z"/><polygon class="cls-4" points="170.13 10.47 183.86 10.44 175.28 35.41 161.55 35.45 170.13 10.47"/><polygon class="cls-5" points="65.33 8.13 76.1 8.1 78.83 13.74 80.77 8.09 94.15 8.06 85.42 33.46 75.03 33.49 72.01 27.61 69.99 33.5 56.61 33.53 65.33 8.13"/><path class="cls-6" d="M30.58,8.52l18.12,0A7.84,7.84,0,0,1,53.29,9.8a6.2,6.2,0,0,1,2.65,4,6.45,6.45,0,0,1-.3,3.36L54,22a9.73,9.73,0,0,1-3.37,4.59,9.48,9.48,0,0,1-5.87,1.94l-7.7,0L35.24,33.9l-13.39,0Z"/><path class="cls-7" d="M30.53,8.52l18.12,0A7.84,7.84,0,0,1,53.24,9.8a6.2,6.2,0,0,1,2.65,4,6.5,6.5,0,0,1-.3,3.37L54,22a9.73,9.73,0,0,1-3.37,4.59,9.48,9.48,0,0,1-5.87,1.94l-7.7,0L35.19,33.9l-13.39,0Z"/><path class="cls-8" d="M7.4,34a7.46,7.46,0,0,1-5.79-2.34A6.11,6.11,0,0,1,.48,25.24l1.32-3.9h.82A6.86,6.86,0,0,1,3,18l1-2.85a9.58,9.58,0,0,1,3.4-4.63,9.45,9.45,0,0,1,5.85-1.92l11.16,0a7.37,7.37,0,0,1,5.82,2.36,6.17,6.17,0,0,1,1.14,6.32L30,21.16h-.83a6.62,6.62,0,0,1-.35,3.37l-1,2.85A10.09,10.09,0,0,1,24.58,32a9.13,9.13,0,0,1-5.84,2Z"/><path class="cls-9" d="M7.35,34a7.43,7.43,0,0,1-5.79-2.34A6.11,6.11,0,0,1,.43,25.24l1.32-3.9h.82A6.86,6.86,0,0,1,2.92,18l1-2.85a9.64,9.64,0,0,1,3.4-4.63,9.49,9.49,0,0,1,5.85-1.92l11.16,0a7.39,7.39,0,0,1,5.82,2.36,6.19,6.19,0,0,1,1.15,6.32l-1.34,3.94h-.83a6.62,6.62,0,0,1-.35,3.37l-1,2.85A9.94,9.94,0,0,1,24.53,32a9.13,9.13,0,0,1-5.84,2Z"/><polygon class="cls-10" points="54.55 8.46 67.93 8.43 59.2 33.84 45.83 33.87 54.55 8.46"/><polygon class="cls-11" points="54.98 8.46 68.36 8.43 59.63 33.84 46.26 33.87 54.98 8.46"/><path class="cls-12" d="M67.14,10.65h6.27l5.35,11.08,3.82-11.11h6.26L82.43,29.28h-6L70.81,18.21,67,29.31l-6.26,0Z"/><path class="cls-13" d="M52,13.62a2.84,2.84,0,0,0-1.26-1.89A4.58,4.58,0,0,0,48.11,11l-15.72,0L26,29.72h6.27l1.82-5.35,10.1,0A6.13,6.13,0,0,0,48,23.09a6.43,6.43,0,0,0,2.24-3l1.65-4.82A3.17,3.17,0,0,0,52,13.62Zm-6.63,2.24L44.09,19.7a.5.5,0,0,1-.52.34l-8,0,.9-2.63-2.07-1.87H37.1l8,0c.17,0,.27.06.3.2A.49.49,0,0,1,45.41,15.86Z"/><path class="cls-12" d="M52,13.62a2.84,2.84,0,0,0-1.26-1.89A4.58,4.58,0,0,0,48.06,11l-15.72,0L25.92,29.72h6.27L34,24.37l10.1,0a6.13,6.13,0,0,0,3.83-1.25,6.43,6.43,0,0,0,2.24-3l1.65-4.82A3.17,3.17,0,0,0,52,13.62Zm-6.63,2.24L44,19.7a.5.5,0,0,1-.52.34l-8,0,.9-2.63-2.07-1.87h2.72l8,0c.17,0,.27.06.3.2A.27.27,0,0,1,45.36,15.86Z"/><path class="cls-14" d="M27.05,12.29a4.13,4.13,0,0,0-3.29-1.22l-11.16,0a6.39,6.39,0,0,0-6.07,4.27l-1,2.91a2.79,2.79,0,0,0,.46,3,4.23,4.23,0,0,0,3.31,1.23l9.08,0c.27,0,.37.12.28.34L18,24.9a.47.47,0,0,1-.51.33l-7.64,0c-.28,0-.39-.11-.32-.33l.38-1.07-6.26,0-.57,1.66a2.83,2.83,0,0,0,.47,3,4.21,4.21,0,0,0,3.31,1.22l11.31,0a5.74,5.74,0,0,0,3.74-1.24,6.61,6.61,0,0,0,2.17-3l1-2.91a2.81,2.81,0,0,0-.46-3,4.26,4.26,0,0,0-3.31-1.22l-9.08,0c-.27,0-.38-.11-.31-.33l.22-.65-1.94-1.75h3l7.64,0c.27,0,.37.12.28.34L20.7,17H27l.57-1.66A2.89,2.89,0,0,0,27.05,12.29Z"/><path class="cls-12" d="M27,12.29a4.13,4.13,0,0,0-3.29-1.22l-11.16,0a6.39,6.39,0,0,0-6.07,4.27l-1,2.91a2.81,2.81,0,0,0,.46,3,4.23,4.23,0,0,0,3.31,1.23l9.08,0c.28,0,.37.11.28.33l-.71,2.08a.47.47,0,0,1-.51.33l-7.64,0c-.28,0-.39-.11-.32-.33l.38-1.07-6.26,0L3,25.53a2.81,2.81,0,0,0,.46,3,4.21,4.21,0,0,0,3.31,1.22l11.31,0a5.74,5.74,0,0,0,3.74-1.24,6.61,6.61,0,0,0,2.17-3l1-2.91a2.81,2.81,0,0,0-.46-3,4.26,4.26,0,0,0-3.31-1.22l-9.08,0c-.27,0-.38-.11-.31-.33l.22-.65L10.1,15.62h3l7.64,0c.27,0,.37.12.28.34L20.65,17h6.26l.57-1.66A2.89,2.89,0,0,0,27,12.29Z"/><polygon class="cls-14" points="58.4 15.5 61.07 15.49 62.62 10.97 56.36 10.99 49.95 29.67 56.21 29.65 60.44 17.34 58.4 15.5"/><polygon class="cls-12" points="58.83 15.5 61.5 15.49 63.05 10.97 56.79 10.99 50.38 29.66 56.64 29.65 60.87 17.34 58.83 15.5"/><path class="cls-12" d="M182.38,12.66l5.88,0,5,10.42,3.58-10.44h5.89l-6,17.55-5.58,0-5.34-10.42L182.24,30.2h-5.89Z"/><path class="cls-12" d="M167.72,13.87a3.91,3.91,0,0,0-3.09-1.15l-6.89,0a7.84,7.84,0,0,0-7,4l-9.31,13.56h6.64l8-11.92L154.53,17h6.93c.5,0,.68.2.53.6l-1.67,4.9-6.07,0L157.12,26h2l-1.46,4.25,5.89,0,4.64-13.55A2.7,2.7,0,0,0,167.72,13.87Z"/><path class="cls-12" d="M144.88,12.77l-15.82,0a6,6,0,0,0-3.51,1.11,5.74,5.74,0,0,0-2.2,2.9L119.51,28a1.59,1.59,0,0,0,.27,1.66,2.3,2.3,0,0,0,1.81.67l13.72,0c2.49,0,4.19-1.34,5.11-4l2.34-6.85-11.08,0L131.17,21A1.62,1.62,0,0,0,132.85,23h2.86l-1,2.76c-.06.21-.24.31-.54.31l-7.93,0c-.16,0-.22-.06-.19-.19l2.45-7.13-1.92-1.73h2.92l13.87,0Z"/><polygon class="cls-12" points="174.94 16.94 177.45 16.93 178.91 12.69 173.02 12.7 167 30.25 172.88 30.24 176.86 18.67 174.94 16.94"/><path class="cls-15" d="M111.31,39.51l-7.67-.31-21.29-.45-.47-.36a2.66,2.66,0,0,1-1-2.35,6.16,6.16,0,0,1,.45-2L84,27.43c.35-.86,1.19-1.53,3.13-2.48,5.43-2.73,9.4-4.73,11.78-6l1.86-1c1.09-.61,2-1.17,2.8-1.7l-11.09-.18A3,3,0,0,1,90,14.94a2.23,2.23,0,0,1-.19-2.1l0-.08,0-.07a25.54,25.54,0,0,1,4.2-6,19.28,19.28,0,0,1,5.42-4A24.26,24.26,0,0,1,105.53.56,32,32,0,0,1,111.65,0h.64a28.66,28.66,0,0,1,4.92.49,16.66,16.66,0,0,1,4.29,1.44,9.8,9.8,0,0,1,3.31,2.59,7.31,7.31,0,0,1,1.56,4,10.55,10.55,0,0,1-.85,4.85,17.23,17.23,0,0,1-2.26,4,19.05,19.05,0,0,1-2.88,3.08A33.38,33.38,0,0,1,117,23c-1.26.81-2.46,1.52-3.58,2.11l-1.56.85h3.46c3,0,3.49,2,3.58,2.65a7.91,7.91,0,0,1-.75,4c-.17.42-.48,1.14-.93,2.15s-.74,1.67-.94,2.16l-.16.41a5.12,5.12,0,0,1-.43.85,2.88,2.88,0,0,1-1,.92,3.61,3.61,0,0,1-1.39.44l-.13,0ZM107.5,12.76a1.05,1.05,0,0,0-.29.26c-.16.22-.32.44-.46.66A7.83,7.83,0,0,0,107.5,12.76Z"/><path class="cls-16" d="M83,36.93a.93.93,0,0,1-.25-.82,4,4,0,0,1,.32-1.37l2.65-6.63c.14-.35.89-.86,2.24-1.52q8.22-4.12,11.82-6l1.9-1.07q6.66-3.72,7.87-6.73a1.57,1.57,0,0,0,0-1.5,1.52,1.52,0,0,0-1.33-.58,3,3,0,0,0-2.47,1.19,11,11,0,0,0-.7,1,6.7,6.7,0,0,1-.69.94,1.49,1.49,0,0,1-.82.52l-11-.18c-.89,0-1.24-.25-1.06-.71a23.4,23.4,0,0,1,3.89-5.59,17.38,17.38,0,0,1,4.91-3.66,22.34,22.34,0,0,1,5.62-1.91,30,30,0,0,1,6.38-.52,26,26,0,0,1,4.6.45,14.43,14.43,0,0,1,3.82,1.28,8,8,0,0,1,2.71,2.1,5.47,5.47,0,0,1,1.15,3.05,8.71,8.71,0,0,1-.72,4,15.57,15.57,0,0,1-2,3.58,17.16,17.16,0,0,1-2.6,2.79A31.35,31.35,0,0,1,116,21.43c-1.22.79-2.36,1.46-3.43,2s-2.31,1.26-3.71,2.06-2.62,1.55-3.67,2.27c1.08,0,2.74,0,5,0s4,0,5.11,0,1.69.38,1.79,1.1a6.29,6.29,0,0,1-.63,3c-.16.41-.47,1.1-.9,2.08s-.77,1.72-1,2.23l-.17.41a2.83,2.83,0,0,1-.25.52,1.17,1.17,0,0,1-.4.34,2.43,2.43,0,0,1-.73.22l-1.71,0-7.63-.31"/></g></g></svg>